<svg width="592.875" height="592.875" xmlns="http://www.w3.org/2000/svg">

 <g>
  <title>background</title>
  <rect fill="none" id="canvas_background" height="402" width="582" y="-1" x="-1"/>
 </g>
 <g>
  <title>Layer 1</title>
  <g id="svg_1">
   <g id="svg_2">
    <path fill="#ffffff" id="svg_3" d="m173.266,229.5l0,-22.95c-22.95,-19.125 -38.25,-47.812 -38.25,-80.325c0,-57.375 47.812,-105.188 105.188,-105.188c57.375,0 105.188,47.812 105.188,105.188c0,24.862 -9.562,49.725 -24.863,66.938c7.65,0 13.389,1.913 21.037,3.825c15.301,-21.037 22.951,-45.9 22.951,-72.675c0,-68.851 -55.463,-124.313 -124.313,-124.313s-124.313,55.462 -124.313,124.312c0,43.988 22.95,82.238 57.375,105.188z"/>
    <path fill="#ffffff" id="svg_4" d="m326.267,124.312c0,-47.812 -38.25,-86.062 -86.063,-86.062s-86.062,38.25 -86.062,86.062c0,21.038 7.65,40.163 19.125,53.55l0,-53.55c0,-36.337 30.6,-66.938 66.938,-66.938s66.938,30.6 66.938,66.938l0,53.55c11.473,-13.387 19.124,-32.512 19.124,-53.55z"/>
    <path fill="#ffffff" id="svg_5" d="m469.704,267.75c-11.475,0 -21.037,3.825 -28.688,9.562l0,0c0,-26.775 -21.037,-47.812 -47.812,-47.812c-11.475,0 -22.951,3.825 -32.514,11.475c-7.648,-19.125 -24.861,-30.6 -43.986,-30.6c-11.475,0 -21.038,3.825 -28.688,9.562l0,-95.625c0,-26.775 -21.038,-47.812 -47.812,-47.812s-47.812,21.038 -47.812,47.812l0,170.213c-38.25,-34.425 -80.325,-61.2 -107.1,-34.425c-38.25,38.25 42.075,112.837 103.275,225.675c43.988,78.412 105.188,107.1 166.388,107.1c89.887,0 162.562,-72.675 162.562,-162.562l0,-114.75c0,-26.776 -21.038,-47.813 -47.813,-47.813zm28.688,89.888l0,72.675c0,74.588 -65.025,143.438 -143.438,143.438c-72.675,0 -114.75,-40.162 -149.175,-95.625c-74.588,-126.225 -128.138,-183.6 -107.1,-204.638c21.038,-21.037 72.675,24.862 112.837,66.938l0,-216.114c0,-15.3 13.388,-28.688 28.688,-28.688s28.688,13.388 28.688,28.688l0,200.812l19.125,0l0,-66.938c0,-15.3 13.387,-28.688 28.688,-28.688c15.299,0 28.688,13.388 28.688,28.688l0,47.814l19.125,0l0,-28.688c0,-15.3 13.387,-28.688 28.688,-28.688c15.299,0 28.688,13.388 28.688,28.688l0,47.812l19.125,0l0,-9.562c0,-15.3 13.387,-28.688 28.688,-28.688c15.299,0 28.688,13.388 28.688,28.688l0,42.076l-0.003,0z"/>
   </g>
  </g>
  <g id="svg_6"/>
  <g id="svg_7"/>
  <g id="svg_8"/>
  <g id="svg_9"/>
  <g id="svg_10"/>
  <g id="svg_11"/>
  <g id="svg_12"/>
  <g id="svg_13"/>
  <g id="svg_14"/>
  <g id="svg_15"/>
  <g id="svg_16"/>
  <g id="svg_17"/>
  <g id="svg_18"/>
  <g id="svg_19"/>
  <g id="svg_20"/>
 </g>
</svg>